<?xml version="1.0" encoding="utf-8"?>
<svg xmlns="http://www.w3.org/2000/svg">
<symbol id="add" viewBox="0 0 489.8 489.8"><path d="M438.2 0H51.6C23.1 0 0 23.2 0 51.6v386.6c0 28.5 23.2 51.6 51.6 51.6h386.6c28.5 0 51.6-23.2 51.6-51.6V51.6c0-28.4-23.2-51.6-51.6-51.6zm27.1 438.2c0 14.9-12.2 27.1-27.1 27.1H51.6c-14.9 0-27.1-12.2-27.1-27.1V51.6c0-14.9 12.2-27.1 27.1-27.1h386.6c14.9 0 27.1 12.2 27.1 27.1v386.6z"/><path d="M337.4 232.7h-80.3v-80.3c0-6.8-5.5-12.3-12.3-12.3s-12.3 5.5-12.3 12.3v80.3h-80.3c-6.8 0-12.3 5.5-12.3 12.2 0 6.8 5.5 12.3 12.3 12.3h80.3v80.3c0 6.8 5.5 12.3 12.3 12.3s12.3-5.5 12.3-12.3v-80.3h80.3c6.8 0 12.3-5.5 12.3-12.3 0-6.8-5.5-12.2-12.3-12.2z"/>
</symbol>
<symbol id="logo" viewBox="0 0 32 32"><g transform="translate(0, 0)">
<polyline data-cap="butt" data-color="color-2" fill="none" stroke="#373a3c" stroke-width="2" stroke-miterlimit="10" points="2,6 16,10 30,6 " stroke-linejoin="miter" stroke-linecap="butt"/>
<line data-cap="butt" data-color="color-2" fill="none" stroke="#373a3c" stroke-width="2" stroke-miterlimit="10" x1="16" y1="10" x2="16" y2="30" stroke-linejoin="miter" stroke-linecap="butt"/>
<polygon fill="none" stroke="#373a3c" stroke-width="2" stroke-linecap="square" stroke-miterlimit="10" points="30,25 16,30 2,25 
	2,6 16,2 30,6 " stroke-linejoin="miter"/>
</g>
</symbol>
<symbol id="menu" viewBox="0 0 24 24"><g transform="translate(0, 0)">
<line data-color="color-2" fill="none" stroke="#444444" stroke-width="2" stroke-linecap="square" stroke-miterlimit="10" x1="1" y1="12" x2="23" y2="12" stroke-linejoin="miter"/>
<line fill="none" stroke="#444444" stroke-width="2" stroke-linecap="square" stroke-miterlimit="10" x1="1" y1="5" x2="23" y2="5" stroke-linejoin="miter"/>
<line fill="none" stroke="#444444" stroke-width="2" stroke-linecap="square" stroke-miterlimit="10" x1="1" y1="19" x2="23" y2="19" stroke-linejoin="miter"/>
</g>
</symbol></svg>